<mxfile host="app.diagrams.net" modified="2022-07-28T10:00:14.136Z" agent="5.0 (Macintosh; Intel Mac OS X 10_15_7) AppleWebKit/537.36 (KHTML, like Gecko) Chrome/103.0.5060.134 Safari/537.36 Edg/103.0.1264.71" etag="QGqR4qV7tO4tBQxWdfqm" version="20.2.2" type="github">
  <diagram id="MPaTmiDZxY_MerFk1Ec5" name="第 1 页">
    <mxGraphModel dx="1426" dy="769" grid="1" gridSize="10" guides="1" tooltips="1" connect="1" arrows="1" fold="1" page="1" pageScale="1" pageWidth="827" pageHeight="1169" math="0" shadow="0">
      <root>
        <mxCell id="0" />
        <mxCell id="1" parent="0" />
        <mxCell id="NQK7TbxR-6EsFwVxTZmF-5" value="" style="edgeStyle=orthogonalEdgeStyle;rounded=0;orthogonalLoop=1;jettySize=auto;html=1;" edge="1" parent="1" source="NQK7TbxR-6EsFwVxTZmF-1" target="NQK7TbxR-6EsFwVxTZmF-4">
          <mxGeometry relative="1" as="geometry" />
        </mxCell>
        <mxCell id="NQK7TbxR-6EsFwVxTZmF-1" value="开始" style="rounded=1;whiteSpace=wrap;html=1;" vertex="1" parent="1">
          <mxGeometry x="354" y="120" width="120" height="60" as="geometry" />
        </mxCell>
        <mxCell id="NQK7TbxR-6EsFwVxTZmF-7" value="" style="edgeStyle=orthogonalEdgeStyle;rounded=0;orthogonalLoop=1;jettySize=auto;html=1;" edge="1" parent="1" source="NQK7TbxR-6EsFwVxTZmF-4" target="NQK7TbxR-6EsFwVxTZmF-6">
          <mxGeometry relative="1" as="geometry" />
        </mxCell>
        <mxCell id="NQK7TbxR-6EsFwVxTZmF-13" value="否" style="edgeLabel;html=1;align=center;verticalAlign=middle;resizable=0;points=[];" vertex="1" connectable="0" parent="NQK7TbxR-6EsFwVxTZmF-7">
          <mxGeometry x="-0.525" y="-1" relative="1" as="geometry">
            <mxPoint as="offset" />
          </mxGeometry>
        </mxCell>
        <mxCell id="NQK7TbxR-6EsFwVxTZmF-11" style="edgeStyle=orthogonalEdgeStyle;rounded=0;orthogonalLoop=1;jettySize=auto;html=1;entryX=1;entryY=0.5;entryDx=0;entryDy=0;" edge="1" parent="1" source="NQK7TbxR-6EsFwVxTZmF-4" target="NQK7TbxR-6EsFwVxTZmF-8">
          <mxGeometry relative="1" as="geometry">
            <Array as="points">
              <mxPoint x="560" y="270" />
              <mxPoint x="560" y="490" />
            </Array>
          </mxGeometry>
        </mxCell>
        <mxCell id="NQK7TbxR-6EsFwVxTZmF-12" value="是" style="edgeLabel;html=1;align=center;verticalAlign=middle;resizable=0;points=[];" vertex="1" connectable="0" parent="NQK7TbxR-6EsFwVxTZmF-11">
          <mxGeometry x="-0.2448" y="-1" relative="1" as="geometry">
            <mxPoint as="offset" />
          </mxGeometry>
        </mxCell>
        <mxCell id="NQK7TbxR-6EsFwVxTZmF-4" value="本地词条库版本和服务端一致" style="rhombus;whiteSpace=wrap;html=1;rounded=1;" vertex="1" parent="1">
          <mxGeometry x="319.5" y="230" width="189" height="80" as="geometry" />
        </mxCell>
        <mxCell id="NQK7TbxR-6EsFwVxTZmF-9" value="" style="edgeStyle=orthogonalEdgeStyle;rounded=0;orthogonalLoop=1;jettySize=auto;html=1;" edge="1" parent="1" source="NQK7TbxR-6EsFwVxTZmF-6" target="NQK7TbxR-6EsFwVxTZmF-8">
          <mxGeometry relative="1" as="geometry" />
        </mxCell>
        <mxCell id="NQK7TbxR-6EsFwVxTZmF-6" value="从OSS拉取最新词条库" style="whiteSpace=wrap;html=1;rounded=1;" vertex="1" parent="1">
          <mxGeometry x="354" y="350" width="120" height="60" as="geometry" />
        </mxCell>
        <mxCell id="NQK7TbxR-6EsFwVxTZmF-8" value="结束" style="whiteSpace=wrap;html=1;rounded=1;" vertex="1" parent="1">
          <mxGeometry x="354" y="460" width="120" height="60" as="geometry" />
        </mxCell>
      </root>
    </mxGraphModel>
  </diagram>
</mxfile>
